<svg width="897" height="204" viewBox="0 0 897 204" fill="none" xmlns="http://www.w3.org/2000/svg">
<path d="M170.442 4.2C191.642 4.2 207.942 8.8 219.342 18C230.942 27.2 236.742 39.4 236.742 54.6C236.742 60.6 235.842 66.9 234.042 73.5C228.442 93.5 217.342 108.3 200.742 117.9C184.342 127.5 163.542 132.3 138.342 132.3H107.442L97.2422 168.6C96.8422 169.8 96.6422 171.4 96.6422 173.4C96.6422 176.2 97.2422 178.5 98.4422 180.3C99.8422 182.1 101.842 184.2 104.442 186.6C106.642 188.6 108.142 190.1 108.942 191.1C109.742 192.1 110.142 193.3 110.142 194.7C110.142 198.1 108.542 200.5 105.342 201.9C102.142 203.3 97.4422 204 91.2422 204H15.9422C10.7422 204 6.84219 203.1 4.24219 201.3C1.64219 199.3 0.742187 196.6 1.54219 193.2C1.94219 191.4 2.74219 190 3.94219 189C4.94219 187.8 6.54219 186.5 8.74219 185.1C12.1422 183.1 14.8422 181 16.8422 178.8C18.8422 176.6 20.4422 173.2 21.6422 168.6L58.2422 39.3C59.0422 36.7 59.4422 34.2 59.4422 31.8C59.4422 29.6 59.0422 27.8 58.2422 26.4C57.6422 24.8 56.7422 23 55.5422 21C53.7422 18.4 52.8422 16.3 52.8422 14.7C52.8422 14.1 53.0422 13 53.4422 11.4C54.2422 8.79999 55.9422 6.99999 58.5422 5.99999C61.3422 4.8 65.5422 4.2 71.1422 4.2H170.442ZM162.642 68.1C164.842 60.7 165.942 54.2 165.942 48.6C165.942 37 160.542 31.2 149.742 31.2H136.242L114.942 105.3H128.142C136.542 105.3 143.342 102.7 148.542 97.5C153.942 92.1 158.642 82.3 162.642 68.1ZM394.427 126.6C400.027 126.6 404.227 127.8 407.027 130.2C410.027 132.4 411.527 135.6 411.527 139.8C411.527 141.6 411.227 143.6 410.627 145.8L400.727 180.9C398.127 189.5 394.427 195.5 389.627 198.9C385.027 202.3 378.127 204 368.927 204H227.927C223.727 204 220.527 203.3 218.327 201.9C215.927 200.5 214.727 198.6 214.727 196.2C214.727 195 215.027 193.7 215.627 192.3C216.227 190.7 217.227 189.4 218.627 188.4C220.027 187.2 221.527 186.1 223.127 185.1C226.327 183.1 228.927 181.1 230.927 179.1C232.927 176.9 234.627 173.4 236.027 168.6L272.627 39.3C273.427 36.7 273.827 34.2 273.827 31.8C273.827 29.6 273.427 27.8 272.627 26.4C272.027 24.8 271.127 23 269.927 21C268.127 18.4 267.227 16.3 267.227 14.7C267.227 14.1 267.427 13 267.827 11.4C268.627 8.79999 270.327 6.99999 272.927 5.99999C275.727 4.8 279.927 4.2 285.527 4.2H356.027C360.227 4.2 363.427 4.89999 365.627 6.29999C368.027 7.49998 369.227 9.29999 369.227 11.7C369.227 12.7 368.927 14 368.327 15.6C367.727 17 366.827 18.3 365.627 19.5C364.627 20.5 363.627 21.3 362.627 21.9C361.827 22.3 361.227 22.7 360.827 23.1C357.627 24.9 355.027 26.9 353.027 29.1C351.027 31.3 349.327 34.7 347.927 39.3L309.227 175.2H327.827C332.427 175.2 336.327 174.4 339.527 172.8C342.927 171.2 346.427 168.2 350.027 163.8L370.727 139.2C374.527 134.8 378.127 131.6 381.527 129.6C385.127 127.6 389.427 126.6 394.427 126.6ZM610.238 168.6C609.438 171.2 609.038 173.8 609.038 176.4C609.038 178.6 609.338 180.5 609.938 182.1C610.538 183.5 611.138 184.7 611.738 185.7C612.538 186.5 613.038 187.1 613.238 187.5C615.238 189.5 616.238 191.5 616.238 193.5C616.238 193.9 616.038 194.9 615.638 196.5C614.838 199.3 613.038 201.3 610.238 202.5C607.638 203.5 603.538 204 597.938 204H526.838C522.638 204 519.338 203.3 516.938 201.9C514.738 200.5 513.638 198.6 513.638 196.2C513.638 195 513.938 193.7 514.538 192.3C515.138 190.7 515.938 189.5 516.938 188.7C518.138 187.7 519.738 186.6 521.738 185.4C524.938 183.6 527.538 181.6 529.538 179.4C531.538 177.2 533.238 173.6 534.638 168.6L542.438 142.8H495.638L487.538 159.9C484.138 167.3 482.438 173.1 482.438 177.3C482.438 179.7 482.838 181.7 483.638 183.3C484.438 184.7 485.638 186.2 487.238 187.8C488.638 189.4 489.538 190.8 489.938 192C490.538 193 490.638 194.4 490.238 196.2C489.438 199.2 487.738 201.3 485.138 202.5C482.738 203.5 478.838 204 473.438 204H428.738C424.137 204 420.637 203.2 418.237 201.6C415.837 199.8 414.637 197.5 414.637 194.7C414.637 191.5 415.837 189 418.237 187.2C420.437 185.2 423.837 183.1 428.438 180.9C434.438 177.9 439.238 175 442.838 172.2C446.438 169.2 449.538 165.1 452.138 159.9L505.538 49.2C513.738 32 523.338 19.6 534.338 12C545.538 4.19999 560.238 0.299994 578.437 0.299994C598.838 0.299994 614.638 4.49999 625.838 12.9C637.038 21.1 642.638 32.6 642.638 47.4C642.638 53.6 641.638 60 639.638 66.6L610.238 168.6ZM551.438 112.8L567.338 60C568.138 57.6 568.538 55.1 568.538 52.5C568.538 48.7 567.438 45.9 565.238 44.1C563.238 42.1 560.338 41.1 556.538 41.1C551.738 41.1 547.638 42.5 544.238 45.3C540.838 48.1 537.438 53.1 534.038 60.3L509.438 112.8H551.438ZM866.939 2.99999C875.739 2.99999 882.939 5.89999 888.539 11.7C894.139 17.3 896.939 24.5 896.939 33.3C896.939 34.5 896.739 36.7 896.339 39.9C894.739 49.5 890.939 56.6 884.939 61.2C879.139 65.8 872.339 68.1 864.539 68.1C859.339 68.1 854.939 67.3 851.339 65.7C847.739 64.1 844.339 61.4 841.139 57.6L791.639 122.1L777.839 168.6C777.439 169.8 777.239 171.4 777.239 173.4C777.239 176.2 777.939 178.6 779.339 180.6C780.739 182.4 782.739 184.4 785.339 186.6C787.539 188.6 789.139 190.3 790.139 191.7C791.139 193.1 791.339 194.7 790.739 196.5C789.939 199.3 787.939 201.3 784.739 202.5C781.739 203.5 777.539 204 772.139 204H696.539C691.339 204 687.439 203.1 684.839 201.3C682.439 199.3 681.639 196.6 682.439 193.2C682.839 191.4 683.539 190 684.539 189C685.739 187.8 687.539 186.4 689.939 184.8C692.939 183 695.439 181 697.439 178.8C699.439 176.4 701.139 173 702.539 168.6L716.339 121.8L688.739 43.2C686.739 37.4 684.339 33 681.539 30C678.939 26.8 675.839 23.7 672.239 20.7C670.039 19.1 668.439 17.7 667.439 16.5C666.439 15.3 665.939 13.9 665.939 12.3C665.939 9.89999 666.939 7.99999 668.939 6.59998C671.139 4.99999 674.239 4.2 678.239 4.2H758.339C765.339 4.2 770.139 4.8 772.739 5.99999C775.339 7.19999 776.739 9.29999 776.939 12.3C776.939 14.1 776.539 15.7 775.739 17.1C774.939 18.3 773.739 19.8 772.139 21.6C770.339 24 768.939 26 767.939 27.6C767.139 29 766.739 30.8 766.739 33C766.739 33.6 766.939 34.9 767.339 36.9L781.139 89.7L819.239 35.4C827.439 23.8 835.139 15.5 842.339 10.5C849.739 5.49999 857.939 2.99999 866.939 2.99999Z" fill="#FF7A00"/>
</svg>
