<svg width="254" height="73" viewBox="0 0 254 73" fill="none" xmlns="http://www.w3.org/2000/svg">
<path d="M12.6688 61.3C12.6688 63.3667 12.6688 65.0333 12.6688 66.3C12.7354 67.5 12.8021 68.4667 12.8688 69.2C12.9354 70 13.0021 70.6 13.0688 71C9.00209 71 5.83542 70.1667 3.56875 68.5C1.36875 66.7667 0.268753 63.9 0.268753 59.9L0.468753 17.6C0.468753 14.4 1.03542 11.7333 2.16875 9.6C3.30209 7.46666 4.86875 5.76666 6.86875 4.5C8.86875 3.16666 11.2021 2.23333 13.8688 1.7C16.6021 1.1 19.5688 0.699997 22.7688 0.499996C25.9021 0.299998 29.2021 0.533333 32.6688 1.2C36.1354 1.86666 39.3688 3.1 42.3688 4.9C45.3688 6.63333 47.8688 9 49.8688 12C51.9354 15 53.0688 18.8 53.2688 23.4C53.4021 26.2 53.0354 29.1 52.1688 32.1C51.3688 35.0333 50.0021 37.7 48.0688 40.1C46.1354 42.5 43.5688 44.5 40.3688 46.1C37.1688 47.6333 33.2688 48.4 28.6688 48.4C26.4021 48.4 24.3021 48.2667 22.3688 48C20.5021 47.7333 18.8354 47.4333 17.3688 47.1C15.6354 46.7 14.0688 46.2333 12.6688 45.7V61.3ZM26.4688 38.6C30.7354 38.6 34.2021 37.3333 36.8688 34.8C39.6021 32.2667 40.8688 28.4667 40.6688 23.4C40.5354 20.7333 39.9354 18.5 38.8688 16.7C37.8688 14.9 36.5354 13.5 34.8688 12.5C33.2688 11.5 31.4021 10.8333 29.2688 10.5C27.1354 10.1667 24.9688 10.1 22.7688 10.3C20.7688 10.5 19.1354 10.8667 17.8688 11.4C16.6021 11.8667 15.5688 12.4667 14.7688 13.2C14.0354 13.8667 13.5021 14.6333 13.1688 15.5C12.9021 16.3667 12.7688 17.2333 12.7688 18.1V35.7C13.9688 36.2333 15.3021 36.7 16.7688 37.1C18.0354 37.4333 19.4688 37.7667 21.0688 38.1C22.7354 38.4333 24.5354 38.6 26.4688 38.6ZM58.3742 10.6C58.3076 8.6 58.2742 7 58.2742 5.8C58.2742 4.53333 58.2409 3.53333 58.1742 2.8C58.1076 2 58.0409 1.4 57.9742 0.999995C66.1076 0.999995 70.1742 4.9 70.1742 12.7L70.3742 38.1C70.3742 42.4333 70.5409 46.0667 70.8742 49C71.2742 51.9333 72.0409 54.3 73.1742 56.1C74.3742 57.9 76.0409 59.2 78.1742 60C80.3742 60.7333 83.2742 61.1 86.8742 61.1C88.5409 61.1 90.0409 61.1 91.3742 61.1C92.7742 61.0333 93.9409 60.9667 94.8742 60.9C96.0076 60.8333 97.0076 60.7333 97.8742 60.6V61.2C97.8742 62.2667 97.6076 63.4 97.0742 64.6C96.6076 65.7333 95.8409 66.7667 94.7742 67.7C93.7742 68.6333 92.4742 69.4333 90.8742 70.1C89.3409 70.7 87.4742 71 85.2742 71C79.9409 71 75.5409 70.4667 72.0742 69.4C68.6076 68.2667 65.8409 66.4 63.7742 63.8C61.7742 61.2 60.3742 57.7667 59.5742 53.5C58.7742 49.1667 58.3742 43.8333 58.3742 37.5V10.6ZM164.794 65.4C165.06 66.0667 165.327 66.7 165.594 67.3C165.86 67.9 166.094 68.4667 166.294 69C166.56 69.6 166.794 70.2 166.994 70.8C164.994 71.3333 163.094 71.5 161.294 71.3C159.76 71.1667 158.194 70.7 156.594 69.9C155.06 69.1 153.86 67.6333 152.994 65.5C152.594 64.5667 151.86 62.7333 150.794 60C149.727 57.2667 148.46 54.0667 146.994 50.4H118.594C117.127 54.0667 115.86 57.2667 114.794 60C113.727 62.7333 112.994 64.5667 112.594 65.5C111.66 67.6333 110.427 69.1 108.894 69.9C107.36 70.7 105.827 71.1667 104.294 71.3C102.494 71.5 100.594 71.3333 98.5938 70.8C98.7938 70.2 99.0271 69.6 99.2938 69C99.4938 68.4667 99.6938 67.9 99.8938 67.3C100.16 66.7 100.46 66.0667 100.794 65.4C101.26 64.2 102.06 62.1333 103.194 59.2C104.394 56.2667 105.76 52.9 107.294 49.1C108.827 45.3 110.427 41.3 112.094 37.1C113.827 32.9 115.427 28.9 116.894 25.1C118.427 21.3 119.794 17.9667 120.994 15.1C122.194 12.1667 123.027 10.1 123.494 8.89999C124.227 7.03333 124.994 5.56666 125.794 4.5C126.66 3.36666 127.494 2.5 128.294 1.9C129.094 1.3 129.86 0.933329 130.594 0.799998C131.394 0.599996 132.127 0.499996 132.794 0.499996C133.46 0.499996 134.16 0.599996 134.894 0.799998C135.694 0.933329 136.494 1.3 137.294 1.9C138.094 2.5 138.894 3.36666 139.694 4.5C140.56 5.56666 141.36 7.03333 142.094 8.89999C142.56 10.1 143.36 12.1667 144.494 15.1C145.694 17.9667 147.06 21.3 148.594 25.1C150.127 28.9 151.727 32.9 153.394 37.1C155.127 41.3 156.76 45.3 158.294 49.1C159.827 52.9 161.16 56.2667 162.294 59.2C163.494 62.1333 164.327 64.2 164.794 65.4ZM143.194 40.5C141.86 37.1667 140.56 33.9333 139.294 30.8C138.027 27.6 136.927 24.7333 135.994 22.2C134.794 19.2667 133.727 16.4667 132.794 13.8C131.727 16.4667 130.627 19.2667 129.494 22.2C128.494 24.7333 127.394 27.6 126.194 30.8C124.994 33.9333 123.727 37.1667 122.394 40.5H143.194ZM183.527 10.4C182.127 12.7333 180.194 13.9 177.727 13.9C176.661 13.9 175.661 13.6667 174.727 13.2C173.727 12.6 172.961 11.8333 172.427 10.9C171.894 9.9 171.627 8.83333 171.627 7.7C171.627 6.43333 171.927 5.3 172.527 4.29999C173.127 3.16666 173.961 2.3 175.027 1.7C176.094 1.03333 177.194 0.699999 178.327 0.699999C179.327 0.699999 180.294 0.966664 181.227 1.49999C182.294 2.03333 183.094 2.8 183.627 3.79999C184.161 4.8 184.427 5.86666 184.427 7C184.427 8.2 184.127 9.33333 183.527 10.4ZM191.327 62C190.994 62.4667 190.427 62.8667 189.627 63.2C188.827 63.4667 188.027 63.5333 187.227 63.4C186.427 63.2667 185.727 62.8667 185.127 62.2C184.527 61.4667 184.227 60.3 184.227 58.7V34.8C184.227 32.8 184.227 31.2 184.227 30C184.294 28.7333 184.361 27.7333 184.427 27C184.494 26.2 184.561 25.5667 184.627 25.1C180.494 25.1 177.361 25.9667 175.227 27.7C173.094 29.4333 172.027 32.3 172.027 36.3L171.927 59.9C171.927 61.5667 172.161 63.1667 172.627 64.7C173.161 66.2333 173.927 67.5667 174.927 68.7C175.994 69.8333 177.294 70.7 178.827 71.3C180.361 71.9667 182.161 72.2 184.227 72C186.361 71.8667 187.927 71.2667 188.927 70.2C189.927 69.0667 190.594 67.9 190.927 66.7C191.327 65.3 191.461 63.7333 191.327 62ZM253.42 70.2C252.954 70.3333 252.42 70.4667 251.82 70.6C251.287 70.7333 250.687 70.8333 250.02 70.9C249.42 70.9667 248.754 71 248.02 71C243.287 71 239.42 69.9333 236.42 67.8C233.487 65.6667 230.92 62.3667 228.72 57.9C228.187 56.9 227.487 55.5 226.62 53.7C225.754 51.8333 224.787 49.7667 223.72 47.5C222.72 45.1667 221.62 42.7 220.42 40.1C219.287 37.5 218.154 34.9333 217.02 32.4C214.354 26.4667 211.487 20.0667 208.42 13.2L208.82 61.3C208.887 63.3 208.92 64.9333 208.92 66.2C208.987 67.4667 209.054 68.4667 209.12 69.2C209.187 70 209.254 70.6 209.32 71C205.187 71 202.02 70.1667 199.82 68.5C197.62 66.7667 196.52 63.9 196.52 59.9V2.3C196.987 2.16666 197.52 2.03333 198.12 1.9C198.654 1.76666 199.22 1.66667 199.82 1.6C200.487 1.53333 201.187 1.49999 201.92 1.49999C207.187 1.49999 211.42 2.66666 214.62 5C217.82 7.26666 220.654 10.8 223.12 15.6C223.454 16.2667 223.954 17.3667 224.62 18.9C225.354 20.3667 226.154 22.1333 227.02 24.2C227.954 26.2 228.954 28.3667 230.02 30.7C231.087 33.0333 232.154 35.4 233.22 37.8C235.687 43.4 238.354 49.5 241.22 56.1L240.92 12.6C240.92 8.66666 242.02 5.83333 244.22 4.1C246.42 2.36666 249.587 1.49999 253.72 1.49999C253.654 1.96666 253.587 2.6 253.52 3.39999C253.454 4.13333 253.387 5.13333 253.32 6.4C253.32 7.6 253.32 9.2 253.32 11.2L253.42 70.2Z" fill="#02D5C6"/>
</svg>
